<svg viewBox="0 0 160 220" xmlns="http://www.w3.org/2000/svg"><path fill="#FDBC3D" d="m85.981 97.321-.98.39-20.608 8.23 6.331 6.547z"/><path d="M56.426 67.737 41.92 82.822 52.186 93.37C60.835 86.2 70.02 82.868 70.84 82.58L56.426 67.737z" fill="#8EC63F"/><path fill="#208ECB" d="M56.426 67.737 41.654 53.07l-14.227 14.8L41.92 82.822z"/><path d="m36.054 47.302-6.943 2.792A38.381 38.381 0 0 0 17.37 57.51L27.427 67.87l14.228-14.8-5.6-5.768z" fill="#273C8B"/><path d="m114.361 127.951-.243-.25-5.652 5.675c1.896-1.516 4.286-3.66 5.895-5.425z" fill="#EE4649"/><path d="m97.376 139.91 3.708-1.875a46.26 46.26 0 0 0 7.382-4.659l5.652-5.676-14.311-15.285-14.493 15.072 12.062 12.423z" fill="#F6944E"/><path fill="#FFC951" d="m85.566 97.749-14.842 14.74 14.59 14.998 14.492-15.072z"/><path d="m64.375 105.948-11.257 4.493c-3.3.973-6.096 2.843-8.433 5.081l11.547 11.892 14.493-14.926-6.35-6.54z" fill="#F6CC18"/><path d="M52.173 93.382 41.92 82.822 27.286 97.749l11.785 11.991c3.304-6.888 8.174-12.272 13.102-16.358z" fill="#C5D82D"/><path fill="#0D77B3" d="M27.427 67.87 12.92 82.81l14.365 14.939L41.92 82.822z"/><path d="M27.427 67.87 17.369 57.51A38.573 38.573 0 0 0 6.275 75.967l6.645 6.843 14.507-14.94z" fill="#2A377E"/><path d="m90.114 152.277-4.871 5.017 14.808 15.397c-.632-1.942-1.605-4.438-2.58-6.307l-7.357-14.107z" fill="#DA2128"/><path fill="#F8A561" d="m86.526 145.398 10.833-5.48-12.046-12.43-14.506 14.939 14.436 14.867 4.87-5.017z"/><path fill="#FDBC3D" d="m70.724 112.488-14.493 14.926 14.576 15.013 14.506-14.94z"/><path d="M44.685 115.522c-6.71 6.473-9.664 16.048-9.664 16.048-.3-4.606.058-8.83.906-12.698l-8.513 8.742 14.311 14.74 14.506-14.94-11.546-11.892z" fill="#FAD412"/><path d="M39.07 109.74 27.286 97.75l-13.29 13.687 3.707 6.178 9.71 10 8.52-8.775a42.699 42.699 0 0 1 3.137-9.099z" fill="#C4D52D"/><path d="m12.92 82.81-7.638 7.719c.65 5.1 2.35 10.3 5.194 15.04l3.52 5.867 13.29-13.687-14.365-14.94z" fill="#1B80C1"/><path d="M6.276 75.966c-1.22 4.667-1.597 9.683-.993 14.563l7.638-7.72-6.645-6.843z" fill="#1A4685"/><path d="m85.243 187.173 12.503 13.022c4.142-8.355 5.147-18.255 2.306-27.504l-.302-.311-14.507 14.793z" fill="#B12026"/><path fill="#E42028" d="m85.243 157.294-14.436 15.012 14.436 14.867L99.75 172.38z"/><path fill="#F16B4E" d="m70.807 142.427-14.576 14.867 14.576 15.012 14.436-15.012z"/><path fill="#FAD412" d="m56.231 127.414-14.506 14.94 14.506 14.94 14.576-14.867z"/><path fill="#FFC951" d="m27.414 127.615-2.292 2.36 10.932 18.22 5.671-5.841z"/><path fill="#FFC951" d="m17.704 117.614 7.418 12.362 2.292-2.361z"/><path d="m97.745 200.194-12.502-13.022-14.506 14.94 12.918 13.304a36.951 36.951 0 0 0 14.09-15.222z" fill="#981C20"/><path fill="#C92039" d="m70.807 172.306-12.59 12.823 6.423 10.704 6.098 6.28 14.505-14.94z"/><path fill="#F05B41" d="m56.231 157.294-9.095 9.368 11.08 18.467 12.591-12.823z"/><path fill="#F6CC18" d="m41.725 142.354-5.67 5.84 11.08 18.468 9.096-9.368z"/><path d="m69.298 203.595 8.903 14.838 4.105-2.237c.428-.233.934-.533 1.349-.78l-12.918-13.303-1.439 1.482z" fill="#7A1319"/><path fill="#981C20" d="m64.64 195.833 4.658 7.762 1.44-1.482z"/><path d="m143.13 37.917 10.653-10.971a41.81 41.81 0 0 0 .942-6.94L143.312 8.251l-14.48 14.94 14.298 14.726z" fill="#15796E"/><path fill="#29B364" d="m128.818 23.177 14.494-14.926-2.737-2.965-20.951 8.422z"/><path d="M147.106 42.012c3.058-4.334 5.434-9.932 6.677-15.066L143.13 37.917l3.976 4.095z" fill="#21A29F"/><path d="M154.725 20.006c.308-6.28-.783-12.862-3.488-19.006l-1.41.567-6.516 6.684 11.414 11.755z" fill="#12827F"/><path fill="#12827F" d="m149.828 1.567-9.253 3.72 2.737 2.964z"/><path fill="#0C6355" d="m128.624 52.857 14.506-14.94-14.312-14.713-14.493 14.926z"/><path fill="#1B974D" d="m99.819 23.19 14.506 14.94 14.48-14.94-9.2-9.475-17.363 6.98z"/><path fill="#16669F" d="m102.242 20.696-3.485 1.4 1.062 1.095z"/><path d="M131.188 55.497a41.696 41.696 0 0 0 15.918-13.485l-3.976-4.095-14.506 14.94 2.564 2.64z" fill="#44BFBD"/><path fill="#0D5650" d="m110.997 64.582 11.052-4.955 6.575-6.77-14.299-14.727-14.506 14.94z"/><path fill="#3FAF49" d="M114.325 38.13 99.819 23.19 85.243 38.059l14.563 14.999z"/><path fill="#0D77B3" d="m99.819 23.19-1.062-1.094-20.969 8.43 7.455 7.532z"/><path d="M130.053 56.04c.353-.157.79-.376 1.135-.543l-2.564-2.64-6.574 6.77 8.003-3.587z" fill="#0C6355"/><path fill="#12827F" d="M110.997 64.582 99.819 53.07 85.313 68.01l5.47 5.633z"/><path fill="#4EB648" d="M99.819 53.07 85.243 38.058 70.807 53.07 85.3 67.997z"/><path fill="#16669F" d="m85.243 38.058-7.455-7.532-20.867 8.388L70.807 53.07z"/><path d="M124.813 108.835c1.902-7.144 2.109-15.019.353-22.538l-11.048 11.379 10.695 11.16z" fill="#FBB139"/><path d="m105.907 89.365 8.211 8.311 11.048-11.38a46.303 46.303 0 0 0-1.186-4.149l-18.073 7.218z" fill="#E2B523"/><path fill="#189590" d="M85.313 68.01 71.415 82.323l19.367-8.681z"/><path fill="#8EC63F" d="M71.37 82.344 85.313 68.01 70.807 53.07 56.426 67.738l14.413 14.844z"/><path fill="#0D77B3" d="M70.807 53.07 56.921 38.914l-2.265.91L41.654 53.07l14.772 14.667z"/><path fill="#1953A2" d="m54.656 39.825-18.602 7.477 5.6 5.768z"/><path d="M114.612 127.663c.885-.988 2.15-2.59 2.942-3.646l-3.171 3.41.229.236z" fill="#ED3551"/><path d="m114.118 127.7 3.436-3.683a46.268 46.268 0 0 0 7.259-15.182l-10.695-11.159-14.311 14.74 14.311 15.284z" fill="#F8A561"/><path fill="#E9B520" d="m85.566 97.749 14.24 14.666 14.312-14.739-8.212-8.311-19.925 7.956z"/><path d="m114.118 127.7.243.251c.086-.095.167-.193.25-.288l-.228-.235-.265.272z" fill="#EE4649"/></svg>