<?xml version="1.0" encoding="UTF-8" standalone="no"?>
<svg
   viewBox="0 0 256.00111 257.15904"
   width="256.0011"
   height="257.15903"
   xml:space="preserve"
   version="1.1"
   id="svg11"
   sodipodi:docname="icon.svg"
   inkscape:version="1.4 (e7c3feb100, 2024-10-09)"
   xmlns:inkscape="http://www.inkscape.org/namespaces/inkscape"
   xmlns:sodipodi="http://sodipodi.sourceforge.net/DTD/sodipodi-0.dtd"
   xmlns="http://www.w3.org/2000/svg"
   xmlns:svg="http://www.w3.org/2000/svg"><defs
   id="defs11" /><sodipodi:namedview
   id="namedview11"
   pagecolor="#ffffff"
   bordercolor="#666666"
   borderopacity="1.0"
   inkscape:showpageshadow="2"
   inkscape:pageopacity="0.0"
   inkscape:pagecheckerboard="0"
   inkscape:deskcolor="#d1d1d1"
   inkscape:zoom="1.4055696"
   inkscape:cx="508.69057"
   inkscape:cy="263.23848"
   inkscape:window-width="2560"
   inkscape:window-height="1371"
   inkscape:window-x="0"
   inkscape:window-y="0"
   inkscape:window-maximized="1"
   inkscape:current-layer="svg11" /><path
   fill="#196aff"
   d="m 226.9007,46.803219 a 126,126 0 0 0 -98.9,-46.79999993 127.2,127.2 0 0 0 -99,46.79999993 A 127,127 0 0 0 7.0005245e-4,128.00322 c 0,34.2 13.29999994755,66.3 37.49999994755,90.5 a 127.2,127.2 0 0 0 90.5,37.5 c 34.2,0 66.3,-13.3 90.5,-37.5 a 127.2,127.2 0 0 0 37.5,-90.5 130,130 0 0 0 -29.1,-81.200001"
   id="path1" /> <path
   fill="#ffffff"
   d="m 167.6007,162.10322 c 4.8,-14 12.6,-18.2 13.6,-39.8 0.4,-7.5 -2,-31.600001 -2,-31.600001 0,0 3.8,-9.6 -3.4,-20.3 -11.1,-16.7 -34,-17.8 -46,-17.8 -12.1,0 -34.8,1.1 -45.9,17.8 -7.2,10.7 -3.4,20.3 -3.4,20.3 l -2.3,23.300001 a 60.8,60.8 0 0 0 3.8,28 c 1.9,5.3 4.9,10.7 7.2,16.1 6.9,16.5 1.1,36.8 1.5,54.6 0.3,12.6 -2.7,25.3 -3.9,37.6 a 127.6,127.6 0 0 0 87.2,-1.7 c -2.7,-15.4 -5.9,-30 -6.4,-35.6 -1.4,-16.9 -5.5,-34.7 0,-50.9"
   id="path2" /> <path
   fill="#ffffff"
   d="m 79.5007,64.003219 c 0.2,2.4 0.4,5 1.1,7.4 0.2,0.8 0.6,2.6 1.5,3 1.2,0.3 3.5,-1.2 4.3,-1.8 l 4.9,-3.7 3.2,-2.2 c 1.1,-0.9 2,-2 2.9,-3 1.1,-1.2 2,-2.5 2.8,-3.9 0.7,-1 5,-1.8 5.7,-2.8 0.7,-1.1 0,-2.5 0,-3.8 0,-10 0.7,-19.7 1,-29.4 0.2,-6.6 2.8,-14.4999999 -7.2,-11.4 -21.4,6.6 -21.1,36.1 -20.2,51.5 m 94.2,13.9 -0.9,-0.6 c -1.2,-1 -2.3,-1.8 -3.3,-2.9 l -3.8,-3.8 -3.3,-3.5 -2,-2.4 -0.7,-1.4 c -0.3,-0.7 -5.3,-1.4 -4.8,-2 0.8,-1.1 2.7,-2 3.2,-3.3 2.3,-6.5 3.3,-32.6 3.5,-39.3 0.8,-16.9999999 15.7,0.8 18.3,7.7 7.6,20 3.1,34.5 -6.1,51.5"
   id="path3" /> <path
   fill="#f1e6d3"
   d="m 153.3007,143.40322 c 0,-9.9 -1.2,-13.8 -6.7,-18.6 -3.4,-3 -7.4,-4.2 -13.8,-4 -6.4,-0.2 -11,1.7 -14.3,5.2 -5,5.2 -6.4,8.3 -6.4,18.1 0,5.3 5.7,17 7.5,19.8 2.8,4.8 8,6.5 13.2,6.2 5.1,0.3 10.3,-1.4 13.2,-6.2 a 56.4,56.4 0 0 0 7.3,-20.5"
   id="path4" /> <path
   fill="#f1d7d4"
   d="m 88.0007,73.003219 c -1.3,-11.5 -5.1,-32 8.2,-44.2 1.5,-1.4 1.9,3.2 2.1,5 0.4,2.6 0,9.9 0,12.4 0.2,4.8 1.2,7.3 0.7,9.5 -1.3,6 -2.3,5.7 -3.5,9.3 -2.5,7.3 -7.1,11.1 -7.5,8 m 83.4,-2.3 c 1.3,2.4 4.9,-10.7 6,-16.4 1,-5.4 2.4,-12.5 0.5,-17.9 -1,-2.8 -7,-11.2 -7.7,-8.4 -0.3,1.2 -0.5,9.5 -1.2,13.5 -0.8,5 -2.3,9.9 -2.4,14.9 0,11.3 3.4,11.7 4.8,14.3"
   id="path5" /> <path
   fill="#faeee0"
   d="m 127.4007,205.80322 c -0.3,0.9 -2.5,1.5 -3.3,1.8 -2,0.6 -3.8,-1 -4.9,-2.3 -1.5,-1.8 -1.5,-4.7 -2.1,-6.8 -0.4,-1.3 -2.6,-1.5 -3.3,-0.3 -2.2,4 -10.8,-3.5 -8.8,-6 1.3,-1.7 -1.9,-3.1 -3.2,-1.5 -3.8,4.8 6.6,13.8 12.5,11.4 l 1,3.5 c 1,2.3 3.3,3.7 5.5,5 3.1,1.6 9.1,-1.3 10,-4.1 0.7,-2 -2.8,-2.6 -3.4,-0.7 m 27.4,-29.1 c 0.3,1.3 0.4,5.8 -2.1,3.4 -1,-1 -3,-0.4 -3.1,0.9 -0.2,3.1 -3.3,3.2 -6,2.2 -2.2,-0.7 -3.3,2.3 -1.2,3 4,1.4 8.3,0.6 10,-2.4 1.3,0.7 2.8,0.8 4,-0.3 2.2,-2 2.5,-4.9 1.9,-7.5 -0.5,-2 -4,-1.3 -3.5,0.7 m 6.3,65.2 c -1,1.9 -2.6,1.8 -4.5,1 -1.3,-0.6 -3,0.3 -2.6,1.7 0.9,2.7 -2.6,3.5 -5,2.6 -2,-0.9 -3.8,1.8 -1.7,2.7 4.2,1.7 9.6,0.2 10.3,-3.5 2.7,0.4 5.3,-0.3 6.6,-3 1,-1.8 -2.2,-3.4 -3,-1.5 m -27.4,-147.200001 c -0.5,2.7 -5.5,-0.5 -6.8,-1.3 -1,-0.8 -2.5,-0.3 -2.6,1 -0.2,1.6 -2.5,1.1 -3.5,1 -2,-0.5 -3.7,-1.7 -3.7,-3.5 0,-1.8 1,-3.7 1.6,-5.4 0.4,-1.1 -1.1,-2.3 -2.2,-1.6 -2,1.3 -11.9,2.5 -8,-1.8 1.3,-1.3 -1,-3.3 -2.2,-1.9 -1.8,2 -3,6.5 0.9,7.5 2,0.5 5,0.4 7.6,-0.1 -1,3.4 -1.3,6.5 3,8.6 3,1.5 7,1.5 8.8,-0.8 3.6,2 9.3,3.900001 10,-1 0.3,-1.7 -2.7,-2.5 -3,-0.7"
   id="path6" /> <path
   fill="#494949"
   d="m 116.9007,157.00322 c 5.2,0.5 10.5,1.7 15.8,1.5 3.3,-0.2 6.8,-0.6 10.2,-1.1 2.4,-0.4 5.4,-0.8 7,-2.6 0.2,6 -12.3,7.9 -17.2,8 -5.6,0.1 -11.9,-2.3 -15.8,-5.8"
   id="path7" /> <path
   fill="#494949"
   d="m 131.0007,144.50322 c -0.6,3.9 -0.7,7.8 -0.3,11.6 0,1 -0.2,3.5 1.2,4 1,0.4 2.4,-0.4 2.6,-1.4 0.3,-1.6 -0.4,-3.7 -0.5,-5.4 0,-2 0,-4 0.2,-6 0.2,-1.2 0.8,-2.8 -0.5,-3.6 -1,-0.6 -2.5,-0.4 -2.7,0.8"
   id="path8" /> <path
   fill="#494949"
   d="m 141.3007,135.10322 c -3.2,0.2 -6.1,2 -8.5,3.6 -2.1,-1.4 -5.4,-2.7 -8,-2 -1.7,0.5 -0.2,1 0.4,1.4 a 15,15 0 0 1 3.2,3 c 1.4,1.7 2.6,3.5 4,5 1.1,-0.6 2,-1.4 3,-2.2 l 4.3,-5.7 1,-1.5 c 0.4,-0.5 1.5,-1.2 0.6,-1.6"
   id="path9" /> <path
   fill="#2c3844"
   d="m 101.3007,113.80322 c 1.6,-4 3.3,-9.2 7.5,-8.3 3.3,0.6 7.6,11.4 4.8,10.4 -1.5,-0.6 -2.7,-5.5 -5.5,-6.1 -1.8,-0.4 -4.3,5.8 -6.7,6.4 -1.1,0.3 -0.5,-1.4 0,-2.4 m 45.8,0 c 1.6,-4 3.2,-9.2 7.5,-8.3 3.2,0.6 7.6,11.4 4.8,10.4 -1.5,-0.6 -2.7,-5.5 -5.5,-6.1 -1.8,-0.4 -4.3,5.8 -6.7,6.4 -1.1,0.3 -0.6,-1.4 -0.1,-2.4"
   id="path10" /> </svg>
