<?xml version="1.0" encoding="UTF-8" standalone="no"?>
<svg
   viewBox="9.449 8.932 47.08 33.271221"
   width="46.107487"
   height="33.363091"
   version="1.1"
   id="svg22"
   xmlns="http://www.w3.org/2000/svg"
   xmlns:svg="http://www.w3.org/2000/svg">
  <defs
     id="defs26" />
  <mask
     id="i08j30ef6a"
     fill="#ffffff">
    <path
       d="m 32.284,17.414 c 0,2.965 -1.108,5.807 -3.085,7.903 -1.975,2.096 -4.653,3.273 -7.446,3.273 -2.793,0 -5.471,-1.177 -7.446,-3.273 -1.976,-2.096 -3.085,-4.938 -3.085,-7.903 z"
       id="path2" />
  </mask>
  <mask
     id="1f1ltfoetb"
     fill="#ffffff">
    <path
       d="m 58.302,17.414 c 0,2.965 -1.109,5.807 -3.085,7.903 -1.974,2.096 -4.653,3.273 -7.446,3.273 -2.793,0 -5.472,-1.177 -7.446,-3.273 -1.976,-2.096 -3.085,-4.938 -3.085,-7.903 z"
       id="path5" />
  </mask>
  <path
     fill="#ffcb00"
     stroke="#000000"
     stroke-linejoin="round"
     stroke-width="1.5"
     d="m 32.989,41.837658 c -1.858,-5.589 -4.335,-4.89 -11.15,-9.78 h 21.682 c -5.931,4.369 -9.292,4.191 -10.532,9.78 z"
     id="path8" />
  <path
     fill="#ffcb00"
     stroke="#000000"
     stroke-width="1.5"
     d="m 49.517,22.219658 c 0,3.417 -1.796,6.628 -4.918,9.03 -3.115,2.4 -7.47,3.918 -12.328,3.918 -4.858,0 -9.214,-1.518 -12.329,-3.918 -3.121,-2.402 -4.919,-5.613 -4.919,-9.03 0,-3.418 1.798,-6.628 4.919,-9.031 3.115,-2.399 7.47,-3.9180003 12.326,-3.9180003 4.861,0 9.216,1.5190003 12.331,3.9180003 3.12,2.403 4.92,5.613 4.92,9.031 z"
     id="path10" />
  <path
     fill="#b3d4ff"
     stroke="#000000"
     stroke-width="3"
     d="m 32.284,17.414 c 0,2.965 -1.109,5.806 -3.084,7.903 -1.975,2.096 -4.655,3.273 -7.447,3.273 -2.792,0 -5.47,-1.177 -7.446,-3.273 -1.976,-2.097 -3.085,-4.938 -3.085,-7.903 z"
     mask="url(#i08j30ef6a)"
     id="path12"
     transform="translate(-1.773,-0.72134231)" />
  <path
     fill="#b3d4ff"
     stroke="#000000"
     stroke-width="3"
     d="m 58.302,17.414 c 0,2.965 -1.109,5.806 -3.085,7.903 -1.974,2.096 -4.653,3.273 -7.445,3.273 -2.793,0 -5.472,-1.177 -7.446,-3.273 C 38.35,23.22 37.24,20.379 37.24,17.414 Z"
     mask="url(#1f1ltfoetb)"
     id="path14"
     transform="translate(-1.773,-0.72134231)" />
  <path
     stroke="#000000"
     stroke-width="1.5"
     d="m 29.272,18.265658 c 2.478,-2.097 4.957,-2.097 7.434,0"
     id="path16" />
  <path
     fill="#ffcb00"
     d="m 33.22,40.090658 c -1.857,-5.588 -12.62,-8.033 -10.762,-9.429 1.858,-1.397 19.824,-2.094 21.063,-0.698 1.24,1.397 -8.497,3.947 -10.301,10.127 z"
     id="path18" />
</svg>
