<?xml version="1.0" encoding="UTF-8" standalone="no"?>
<svg
   version="1.1"
   id="Layer_1"
   x="0"
   y="0"
   viewBox="0 0 36 36"
   xml:space="preserve"
   sodipodi:docname="593b386-budibase-logo-website.svg"
   width="36"
   height="36"
   inkscape:version="1.2.1 (9c6d41e410, 2022-07-14, custom)"
   xmlns:inkscape="http://www.inkscape.org/namespaces/inkscape"
   xmlns:sodipodi="http://sodipodi.sourceforge.net/DTD/sodipodi-0.dtd"
   xmlns="http://www.w3.org/2000/svg"
   xmlns:svg="http://www.w3.org/2000/svg"><defs
     id="defs15" /><sodipodi:namedview
     id="namedview13"
     pagecolor="#ffffff"
     bordercolor="#666666"
     borderopacity="1.0"
     inkscape:showpageshadow="2"
     inkscape:pageopacity="0.0"
     inkscape:pagecheckerboard="0"
     inkscape:deskcolor="#d1d1d1"
     showgrid="false"
     inkscape:zoom="6.5555556"
     inkscape:cx="72.076271"
     inkscape:cy="18"
     inkscape:window-width="1920"
     inkscape:window-height="1011"
     inkscape:window-x="0"
     inkscape:window-y="0"
     inkscape:window-maximized="1"
     inkscape:current-layer="Layer_1" /><style
     id="style2">.st0{fill:none}</style><path
     class="st0"
     d="m 28.5,17.1 c 0.1,0.1 0.2,0.2 0.3,0.4 -0.1,-0.1 -0.2,-0.2 -0.3,-0.4 z m -1.7,-1.2 c -0.6,-0.3 -1.2,-0.4 -1.8,-0.4 0.6,0 1.3,0.1 1.8,0.4 z M 24,15.5 c 0.3,0 0.6,-0.1 0.9,0 -0.3,-0.1 -0.6,-0.1 -0.9,0 z m -1,0.2 c 0.3,-0.1 0.6,-0.2 0.9,-0.2 -0.3,0 -0.6,0.1 -0.9,0.2 z m 6.6,3.4 z m -0.4,-1 c 0,0 0,0.1 0.1,0.1 -0.1,0 -0.1,-0.1 -0.1,-0.1 z m -3.9,8.8 h -0.1 z m 4.6,-6.8 c 0.1,0.3 0.1,0.7 0.1,1 -0.1,-0.3 -0.1,-0.6 -0.1,-1 z M 24.3,27 h -0.4 z m -0.6,-0.1 c -0.1,0 -0.2,0 -0.3,-0.1 0.1,0.1 0.2,0.1 0.3,0.1 z M 24.8,27 H 24.4 Z M 9.7,25.4 c 0.5,0.7 1.2,1.1 1.9,1.3 -0.7,-0.2 -1.4,-0.6 -1.9,-1.3 z m 11.7,-5.2 c -1.2,2.9 3.1,4.9 4.4,1.9 1.3,-2.9 -3.1,-4.9 -4.4,-1.9 z m -11.6,0 c -1.2,2.9 3.1,4.9 4.4,1.9 1.2,-2.9 -3.1,-4.9 -4.4,-1.9 z m 18.5,5.2 c 0.6,-0.5 1,-1.2 1.2,-1.9 -0.3,0.7 -0.6,1.3 -1.1,1.9 0,-0.1 0,0 -0.1,0 z M 23,15.7 c -0.6,0.2 -1.1,0.6 -1.6,1 v 0.1 c 0.4,-0.5 1,-0.8 1.6,-1.1 z m 7,5.5 c 0,0.7 -0.1,1.3 -0.3,2 0.1,-0.7 0.3,-1.3 0.3,-2 z m -8.7,5.4 h 0.1 V 25.5 L 21.3,25.4 Z M 15.1,15.8 c -1,-0.4 -2.1,-0.5 -3.2,-0.3 1.1,-0.3 2.2,-0.2 3.2,0.3 z m -0.2,10.8 c 1.2,-0.4 2.2,-1.3 2.8,-2.4 -0.6,1.1 -1.7,2 -2.8,2.4 z"
     id="path6" /><path
     d="M 33,0 H 3 C 1.3,0 0,1.3 0,3 v 30 c 0,1.7 1.3,3 3,3 h 30 c 1.7,0 3,-1.3 3,-3 V 3 C 36,1.3 34.7,0 33,0 Z m -3.4,23.4 c -0.2,0.8 -0.7,1.4 -1.2,2 -0.8,0.8 -1.9,1.4 -3,1.5 h -0.9 -0.7 c -0.1,0 -0.2,0 -0.3,-0.1 -0.8,-0.2 -1.5,-0.7 -2,-1.4 v 1.2 h -3.7 v -2.4 c -0.5,1.1 -1.6,2 -2.8,2.4 -1.1,0.4 -2.2,0.5 -3.2,0.2 -0.7,-0.2 -1.4,-0.7 -1.9,-1.3 v 1.2 H 6 V 8.9 h 3.7 v 7.8 c 0.6,-0.7 1.4,-1.1 2.2,-1.3 1,-0.2 2.2,-0.1 3.2,0.3 0.2,0.1 0.4,0.2 0.5,0.2 0.9,0.5 1.6,1.2 2,2 v -9 h 3.6 v 7.9 l 0.1,-0.1 c 0.5,-0.5 1,-0.8 1.6,-1 0.3,-0.1 0.6,-0.2 0.9,-0.2 h 1.1 c 0.6,0 1.2,0.2 1.8,0.4 0.7,0.3 1.2,0.7 1.7,1.3 0.1,0.1 0.2,0.2 0.3,0.4 0.1,0.2 0.3,0.4 0.4,0.6 0,0 0,0.1 0.1,0.1 0.2,0.3 0.3,0.6 0.4,0.9 v 0.2 c 0.1,0.3 0.2,0.6 0.2,0.9 0.1,0.3 0.1,0.7 0.1,1 v 0.1 c 0,0.7 -0.1,1.3 -0.3,2 0,-0.1 0,-0.1 0,0 z"
     id="path8" /><path
     d="m 25.3,19.5 c -2.3,-2.3 -5.6,1.2 -3.4,3.5 2.4,2.2 5.6,-1.2 3.4,-3.5 z m -11.6,0 c -2.3,-2.3 -5.6,1.2 -3.4,3.5 2.3,2.2 5.6,-1.2 3.4,-3.5 z"
     id="path10" /></svg>
