<?xml version="1.0" encoding="UTF-8" standalone="no"?>
<svg
   width="39.844765"
   height="37.566059"
   viewBox="0 0 39.844765 37.566059"
   version="1.1"
   id="svg143"
   sodipodi:docname="icon.svg"
   inkscape:version="1.1.2 (0a00cf5339, 2022-02-04, custom)"
   xmlns:inkscape="http://www.inkscape.org/namespaces/inkscape"
   xmlns:sodipodi="http://sodipodi.sourceforge.net/DTD/sodipodi-0.dtd"
   xmlns:xlink="http://www.w3.org/1999/xlink"
   xmlns="http://www.w3.org/2000/svg"
   xmlns:svg="http://www.w3.org/2000/svg">
  <sodipodi:namedview
     id="namedview145"
     pagecolor="#ffffff"
     bordercolor="#666666"
     borderopacity="1.0"
     inkscape:pageshadow="2"
     inkscape:pageopacity="0.0"
     inkscape:pagecheckerboard="0"
     showgrid="false"
     inkscape:zoom="7.2958333"
     inkscape:cx="57.772701"
     inkscape:cy="20.55968"
     inkscape:window-width="1920"
     inkscape:window-height="1011"
     inkscape:window-x="0"
     inkscape:window-y="0"
     inkscape:window-maximized="1"
     inkscape:current-layer="svg143" />
  <title
     id="title94">grist-logo-trans</title>
  <desc
     id="desc96">Created with Sketch.</desc>
  <defs
     id="defs99">
    <path
       d="m 16.823349,17.96096 c -0.919261,0.449282 -1.927878,0.799199 -3.025884,1.04976 -1.098005,0.250561 -2.361969,0.37584 -3.79193,0.37584 -1.4640074,0 -2.8003197,-0.237598 -4.0089769,-0.7128 C 4.7879009,18.198558 3.7494927,17.533284 2.8813023,16.67792 2.0131119,15.822556 1.3364443,14.803046 0.85127907,13.61936 0.36611385,12.435674 0.12353488,11.126727 0.12353488,9.69248 c 0,-1.4688073 0.25109052,-2.7950341 0.75327907,-3.97872 C 1.3790025,4.5300741 2.0684375,3.5235242 2.9451395,2.69408 3.8218416,1.8646358 4.855994,1.2252822 6.0476279,0.776 7.2392618,0.32671775 8.5330163,0.10208 9.9289302,0.10208 c 1.4469838,0 2.7705288,0.21167788 3.9706748,0.63504 1.200145,0.4233621 2.166205,0.9806365 2.898209,1.67184 L 14.576279,4.84544 C 14.116649,4.3270374 13.474027,3.8864018 12.648395,3.52352 11.822763,3.1606382 10.924796,2.9792 9.9544651,2.9792 9.001158,2.9792 8.1372364,3.1519983 7.3626744,3.4976 6.5881124,3.8432017 5.9284678,4.318397 5.3837209,4.9232 4.838974,5.528003 4.4176526,6.2364759 4.1197442,7.04864 3.8218357,7.8608041 3.6728837,8.7420752 3.6728837,9.69248 c 0,0.984965 0.148952,1.887836 0.4468605,2.70864 0.2979084,0.820804 0.7234856,1.533597 1.2767442,2.1384 0.5532585,0.604803 1.2256704,1.075678 2.0172558,1.41264 0.7915853,0.336962 1.6895531,0.50544 2.6939298,0.50544 1.378891,0 2.579019,-0.215998 3.600419,-0.648 V 11.144 H 9.9033954 V 8.44832 H 16.823349 Z M 20.576977,6.4784 h 2.936511 V 8.552 h 0.05107 c 0.340467,-0.7257636 0.817113,-1.3132777 1.429954,-1.76256 0.61284,-0.4492822 1.327809,-0.67392 2.14493,-0.67392 0.119163,0 0.246836,0.00432 0.383023,0.01296 0.136187,0.00864 0.255348,0.03024 0.357488,0.0648 v 2.8512 c -0.20428,-0.05184 -0.378766,-0.0864 -0.523465,-0.10368 -0.144698,-0.01728 -0.285139,-0.02592 -0.421325,-0.02592 -0.697957,0 -1.259719,0.1295987 -1.685303,0.3888 -0.425583,0.2592013 -0.757533,0.5702382 -0.99586,0.93312 -0.238327,0.362882 -0.400046,0.734398 -0.485163,1.11456 -0.08512,0.380162 -0.127674,0.682559 -0.127674,0.9072 V 18.92 h -3.064186 z m 9.345767,0 H 32.98693 V 18.92 H 29.922744 Z M 29.488651,2.25344 c 0,-0.5011225 0.182998,-0.9374381 0.549,-1.30896 0.366002,-0.37152186 0.829881,-0.55728 1.391651,-0.55728 0.561771,0 1.034161,0.17711823 1.417186,0.53136 0.383026,0.3542418 0.574535,0.7991973 0.574535,1.33488 0,0.5356827 -0.191509,0.9806382 -0.574535,1.33488 -0.383025,0.3542418 -0.855415,0.53136 -1.417186,0.53136 -0.56177,0 -1.025649,-0.1857581 -1.391651,-0.55728 -0.366002,-0.3715219 -0.549,-0.8078375 -0.549,-1.30896 z M 43.430698,9.79616 C 43.158324,9.4332782 42.783816,9.1179213 42.307163,8.85008 41.830509,8.5822387 41.311305,8.44832 40.749535,8.44832 c -0.493677,0 -0.944789,0.103679 -1.353349,0.31104 -0.40856,0.207361 -0.612837,0.5529576 -0.612837,1.0368 0,0.483842 0.225556,0.825119 0.676674,1.02384 0.451119,0.198721 1.110763,0.401759 1.978954,0.60912 0.45963,0.103681 0.923509,0.241919 1.391651,0.41472 0.468142,0.172801 0.893719,0.401759 1.276744,0.68688 0.383025,0.285121 0.693697,0.639358 0.932023,1.06272 0.238327,0.423362 0.357489,0.937437 0.357489,1.54224 0,0.760324 -0.140441,1.403997 -0.421326,1.93104 -0.280885,0.527043 -0.655393,0.954718 -1.123535,1.28304 -0.468142,0.328322 -1.01288,0.565919 -1.634232,0.7128 -0.621352,0.146881 -1.263974,0.22032 -1.927884,0.22032 -0.953307,0 -1.881065,-0.177118 -2.783302,-0.53136 -0.902237,-0.354242 -1.651253,-0.859677 -2.24707,-1.51632 l 2.017256,-1.91808 c 0.340466,0.449282 0.783067,0.820799 1.327814,1.11456 0.544747,0.293761 1.149066,0.44064 1.812976,0.44064 0.221304,0 0.44686,-0.02592 0.676675,-0.07776 0.229815,-0.05184 0.442603,-0.133919 0.638372,-0.24624 0.195768,-0.112321 0.353232,-0.263519 0.472395,-0.4536 0.119164,-0.190081 0.178744,-0.423359 0.178744,-0.69984 0,-0.518403 -0.234067,-0.889919 -0.702209,-1.11456 -0.468142,-0.224641 -1.170344,-0.449279 -2.106628,-0.67392 -0.45963,-0.10368 -0.906486,-0.237599 -1.340581,-0.40176 -0.434095,-0.164161 -0.821371,-0.380159 -1.161837,-0.648 -0.340467,-0.267841 -0.612837,-0.600478 -0.817117,-0.99792 -0.20428,-0.397442 -0.306418,-0.889917 -0.306418,-1.47744 0,-0.6912035 0.14044,-1.2873575 0.421325,-1.78848 0.280885,-0.5011225 0.651138,-0.9115184 1.110768,-1.2312 0.45963,-0.3196816 0.978834,-0.5572792 1.557628,-0.7128 0.578793,-0.1555208 1.174601,-0.23328 1.787441,-0.23328 0.885214,0 1.749136,0.1555184 2.591791,0.46656 0.842656,0.3110416 1.510812,0.7862368 2.004489,1.4256 z M 46.290605,8.96672 V 6.4784 h 2.14493 V 2.87552 h 3.013116 V 6.4784 h 3.064186 v 2.48832 h -3.064186 v 5.78016 c 0,0.552963 0.09788,1.010878 0.293651,1.37376 0.195769,0.362882 0.634113,0.54432 1.315047,0.54432 0.20428,0 0.42558,-0.0216 0.663907,-0.0648 0.238327,-0.0432 0.451115,-0.108 0.638372,-0.1944 l 0.102139,2.43648 c -0.272373,0.10368 -0.595812,0.18576 -0.970325,0.24624 -0.374514,0.06048 -0.731998,0.09072 -1.072465,0.09072 -0.817121,0 -1.481021,-0.116639 -1.991721,-0.34992 -0.5107,-0.233281 -0.914999,-0.552958 -1.212907,-0.95904 C 48.91644,17.464158 48.712163,16.997603 48.601512,16.47056 48.49086,15.943517 48.435535,15.377603 48.435535,14.7728 V 8.96672 Z"
       id="path-1" />
  </defs>
  <g
     id="grist-logo-trans"
     stroke="none"
     stroke-width="1"
     fill="none"
     fill-rule="evenodd"
     transform="translate(-3.0121004,-1.1080889)">
    <g
       id="square-color">
      <rect
         id="Rectangle"
         x="0"
         y="0"
         width="116"
         height="40" />
      <g
         id="Group"
         transform="translate(59,10)"
         fill="#ffffff">
        <g
           id="Grist">
          <use
             xlink:href="#path-1"
             id="use102"
             x="0"
             y="0"
             width="100%"
             height="100%" />
        </g>
      </g>
      <g
         id="g139"
         transform="translate(2,1)">
        <g
           transform="translate(29.558621)"
           fill="#2cb0af"
           id="Path">
          <path
             d="M 11.298245,0.10808889 H 5.2167978 c -2.8061863,0 -5.08438897,2.40131851 -5.08438897,5.35912591 V 10.807482 H 6.261754 c 2.7797596,0 5.036491,-2.3788005 5.036491,-5.3087413 z"
             id="path108" />
        </g>
        <g
           transform="matrix(-1,0,0,1,26.731034,0)"
           fill="#2cb0af"
           id="g113">
          <path
             d="M 11.298245,0.10808889 H 5.2167978 c -2.8061863,0 -5.08438897,2.40131851 -5.08438897,5.35912591 V 10.807482 H 6.261754 c 2.7797596,0 5.036491,-2.3788005 5.036491,-5.3087413 z"
             id="path111" />
        </g>
        <g
           transform="matrix(-1,0,0,1,12.310345,13.577778)"
           fill="#f9ae41"
           id="g117">
          <path
             d="M 11.298245,0.10808889 H 5.2167978 c -2.8061863,0 -5.08438897,2.40131851 -5.08438897,5.35912591 V 10.807482 H 6.261754 c 2.7797596,0 5.036491,-2.3788005 5.036491,-5.3087413 z"
             id="path115" />
        </g>
        <g
           transform="matrix(-1,0,0,1,12.310345,26.866667)"
           fill="#f9ae41"
           id="g121">
          <path
             d="M 11.298245,0.10808889 H 5.2167978 c -2.8061863,0 -5.08438897,2.40131851 -5.08438897,5.35912591 V 10.807482 H 6.261754 c 2.7797596,0 5.036491,-2.3788005 5.036491,-5.3087413 z"
             id="path119" />
        </g>
        <g
           transform="matrix(-1,0,0,1,26.731034,13.577778)"
           fill="#d2d2d2"
           id="g125">
          <path
             d="M 11.298245,0.10808889 H 5.2167978 c -2.8061863,0 -5.08438897,2.40131851 -5.08438897,5.35912591 V 10.807482 H 6.261754 c 2.7797596,0 5.036491,-2.3788005 5.036491,-5.3087413 z"
             id="path123" />
        </g>
        <g
           transform="translate(29.558621,13.577778)"
           fill="#d2d2d2"
           id="g129">
          <path
             d="M 11.298245,0.10808889 H 5.2167978 c -2.8061863,0 -5.08438897,2.40131851 -5.08438897,5.35912591 V 10.807482 H 6.261754 c 2.7797596,0 5.036491,-2.3788005 5.036491,-5.3087413 z"
             id="path127" />
        </g>
        <g
           transform="matrix(-1,0,0,1,26.731034,26.866667)"
           fill="#d2d2d2"
           id="g133">
          <path
             d="M 11.298245,0.10808889 H 5.2167978 c -2.8061863,0 -5.08438897,2.40131851 -5.08438897,5.35912591 V 10.807482 H 6.261754 c 2.7797596,0 5.036491,-2.3788005 5.036491,-5.3087413 z"
             id="path131" />
        </g>
        <g
           transform="translate(29.558621,26.866667)"
           fill="#d2d2d2"
           id="g137">
          <path
             d="M 11.298245,0.10808889 H 5.2167978 c -2.8061863,0 -5.08438897,2.40131851 -5.08438897,5.35912591 V 10.807482 H 6.261754 c 2.7797596,0 5.036491,-2.3788005 5.036491,-5.3087413 z"
             id="path135" />
        </g>
      </g>
    </g>
  </g>
</svg>
