<?xml version="1.0" encoding="UTF-8" standalone="no"?>
<svg
   viewBox="0 0 18.636101 19.71813"
   version="1.1"
   id="svg4"
   width="18.636101"
   height="19.71813"
   xmlns="http://www.w3.org/2000/svg"
   xmlns:svg="http://www.w3.org/2000/svg">
  <defs
     id="defs8" />
  <path
     fill="#fd602e"
     d="m 18.6361,15.21233 -3.4606,-2.0189 c -0.5532,0.8894 -1.2436,1.5564 -2.0727,2.0007 -0.829,0.4451 -1.7364,0.667 -2.7214,0.667 -1.70657,0 -3.10616,-0.5464 -4.19946,-1.6403 -1.09359,-1.093 -1.64014,-2.5532 -1.64014,-4.3801 0,-1.8257 0.55252,-3.2857 1.65821,-4.3796 1.10497,-1.0932 2.49912,-1.6404 4.18139,-1.6404 0.985,0 1.8924,0.2227 2.7214,0.6671 0.8291,0.445 1.5195,1.1117 2.0727,2.0007 l 3.4606,-2.0189 C 17.9151,3.02813 16.8394,1.92283 15.41,1.15334 13.9798,0.38456 12.3155,0 10.4175,0 8.39871,0 6.60198,0.42085 5.02844,1.26149 3.45433,2.1032 2.22247,3.26823 1.33371,4.75813 0.44438,6.24873 0,7.94273 0,9.84073 c 0,1.899 0.44438,3.5999 1.33371,5.1012 0.88876,1.5023 2.12674,2.6738 3.7128,3.5148 1.58593,0.8413 3.37582,1.2614 5.37099,1.2614 1.8744,0 3.5265,-0.3902 4.9562,-1.1715 1.4296,-0.7804 2.5172,-1.8921 3.2624,-3.3343 z"
     id="path2" />
</svg>
